<svg xmlns="http://www.w3.org/2000/svg" xmlns:xlink="http://www.w3.org/1999/xlink" width="35px" height="34px">
    <path fill-rule="evenodd" fill="rgb(241, 251, 255)" d="M13.378,4.239 C18.026,4.239 21.808,8.039 21.808,12.711 C21.808,14.470 21.267,16.164 20.245,17.607 L19.416,18.778 L18.250,19.612 C16.813,20.640 15.129,21.183 13.378,21.183 C8.730,21.183 4.948,17.382 4.948,12.711 C4.948,8.039 8.730,4.239 13.378,4.239 M13.378,0.003 C6.395,0.003 0.734,5.693 0.734,12.711 C0.734,19.729 6.395,25.418 13.378,25.418 C16.107,25.418 18.627,24.540 20.694,23.063 L30.848,33.269 C31.261,33.684 31.801,33.891 32.341,33.891 C32.881,33.891 33.422,33.684 33.834,33.269 C34.658,32.441 34.658,31.098 33.834,30.269 L23.679,20.064 C25.149,17.987 26.023,15.454 26.023,12.711 C26.023,5.693 20.361,0.003 13.378,0.003 L13.378,0.003 Z" />
</svg>