<svg width="40" height="40" viewBox="0 0 40 40" fill="none" xmlns="http://www.w3.org/2000/svg">
<rect width="40" height="40" fill="#FD820D"/>
<path d="M4.73503 5.04827C4.66945 5.12848 4.69404 5.37334 4.79651 5.68996C4.8334 5.80395 5.04654 6.27255 5.27197 6.73694C5.49331 7.1971 5.67366 7.58127 5.66546 7.58549C5.65727 7.59393 5.48102 7.61926 5.26788 7.64459C4.817 7.69525 4.66535 7.77124 4.73503 7.91056C4.8129 8.05832 5.44823 8.65779 5.83352 8.94064C5.84171 8.94909 5.74334 9.32481 5.62038 9.77653C5.49331 10.2282 5.35805 10.7602 5.31706 10.9544C5.25148 11.3005 5.25148 11.3259 5.32116 11.6467C5.36215 11.8283 5.50971 12.318 5.64497 12.7359L5.895 13.4958V14.1586L5.8991 14.8214L6.06305 14.9987C6.15323 15.0958 6.44834 15.3238 6.71886 15.5095L7.21073 15.8473L7.74357 15.8177C8.51006 15.7755 8.97733 15.594 10.2849 14.8214C10.8628 14.4837 11.1907 14.3486 11.7809 14.2093C12.3466 14.0784 12.6376 14.0742 12.7565 14.2051C12.9573 14.4246 13.0967 14.8932 13.1745 15.5855C13.1991 15.8051 13.2852 16.2906 13.359 16.6621C13.527 17.4473 13.527 17.4811 13.4246 17.785C13.3426 18.0299 13.1458 18.4563 13.1131 18.4563C13.1008 18.4563 12.9327 18.3887 12.7401 18.3043C12.5433 18.2199 12.2031 18.089 11.9777 18.0088C11.6949 17.9074 11.3383 17.7217 10.7808 17.3755L9.98154 16.89L8.98552 16.6367C7.23532 16.1892 6.15732 15.9866 5.72695 16.0161C5.16541 16.0584 4.33334 16.6283 4.07511 17.1475C3.90296 17.4937 4.02593 17.861 4.45221 18.2705C4.93177 18.7307 5.11212 18.7729 6.16552 18.642C6.80904 18.566 6.9525 18.5871 7.23532 18.8067C7.37468 18.9206 7.47305 18.9544 7.6698 18.9797C8.09198 19.0304 8.55924 19.2246 8.96093 19.5201C9.0675 19.6003 9.37901 19.8705 9.64953 20.1238C9.92416 20.3813 10.3176 20.7064 10.5226 20.8542C11.6416 21.6521 14.3263 23.1592 14.81 23.2647C15.0436 23.3154 15.515 23.2647 16.1872 23.1254C16.4577 23.0663 16.6913 23.0325 16.7077 23.0494C16.7364 23.079 17.1422 24.945 17.2488 25.5444C17.2857 25.7386 17.3144 26.0426 17.3144 26.2199C17.3144 26.6969 17.1791 27.8452 17.007 28.8204C16.9742 29.0062 16.884 29.5297 16.8061 29.9814C16.7282 30.4331 16.634 31.0875 16.5971 31.4379C16.4782 32.5566 16.47 32.5693 15.7978 32.6664C15.1748 32.755 14.9001 32.8901 14.4862 33.3165C13.9492 33.8611 13.6746 34.4606 13.7853 34.8363C13.8549 35.0727 14.0551 35.7383 14.3174 35.8565C14.5223 35.9536 14.5081 36.0042 15.5 36C19.2419 36 23.0182 35.9887 26.7694 36H34C35.4829 35.9249 37 33.5255 37 32.5C37 30.5255 36.8166 30.3402 36.8043 27.7228C36.7961 26.2241 36.7879 26.0721 36.6896 25.4136C36.1157 21.6309 34.468 18.1819 32.0497 15.6911C30.57 14.1713 28.0287 12.3349 25.4711 10.9459C24.2127 10.2578 23.106 9.73853 21.4583 9.06307C20.9213 8.83932 20.2819 8.54381 20.036 8.40027C18.999 7.80079 16.0478 6.36121 15.6133 6.243C14.8182 6.02348 11.9982 5.58442 11.1661 5.55065C10.5759 5.52532 10.2357 5.55909 9.32573 5.72796C9.02241 5.78706 8.66581 5.8335 8.53465 5.8335C8.3666 5.8335 7.83375 5.71107 6.75575 5.43244C5.04244 4.98494 4.817 4.94273 4.73503 5.04827ZM20.8189 28.2801C20.864 28.5376 21.1099 29.1286 21.3886 29.6521C21.6304 30.1038 21.942 30.602 22.4871 31.4083C22.7371 31.7798 22.7781 31.9825 22.6347 32.1175C22.5855 32.1682 22.3108 32.3033 22.028 32.4215C21.7452 32.5355 21.3148 32.7255 21.0648 32.8352L20.6139 33.0421L20.1221 33.0463C19.7942 33.0505 19.581 33.0759 19.4867 33.1181C19.29 33.2025 19.0687 33.2363 19.0031 33.1941C18.9293 33.1476 19.2244 32.3455 19.6712 31.3745C19.8597 30.9693 20.0893 30.4078 20.1795 30.1291C20.3598 29.5634 20.7164 28.2505 20.7164 28.145C20.7164 28.0225 20.7902 28.1196 20.8189 28.2801Z" fill="white"/>
</svg>
