<svg width="40" height="40" viewBox="0 0 40 40" fill="none" xmlns="http://www.w3.org/2000/svg">
<rect width="40" height="40" fill="#FD820D"/>
<path d="M4.73503 9.04827C4.66945 9.12848 4.69404 9.37334 4.79651 9.68996C4.8334 9.80395 5.04654 10.2726 5.27197 10.7369C5.49331 11.1971 5.67366 11.5813 5.66546 11.5855C5.65727 11.5939 5.48102 11.6193 5.26788 11.6446C4.817 11.6953 4.66535 11.7712 4.73503 11.9106C4.8129 12.0583 5.44823 12.6578 5.83352 12.9406C5.84171 12.9491 5.74334 13.3248 5.62038 13.7765C5.49331 14.2282 5.35805 14.7602 5.31706 14.9544C5.25148 15.3005 5.25148 15.3259 5.32116 15.6467C5.36215 15.8283 5.50971 16.318 5.64497 16.7359L5.895 17.4958V18.1586L5.8991 18.8214L6.06305 18.9987C6.15323 19.0958 6.44834 19.3238 6.71886 19.5095L7.21073 19.8473L7.74357 19.8177C8.51006 19.7755 8.97733 19.594 10.2849 18.8214C10.8628 18.4837 11.1907 18.3486 11.7809 18.2093C12.3466 18.0784 12.6376 18.0742 12.7565 18.2051C12.9573 18.4246 13.0967 18.8932 13.1745 19.5855C13.1991 19.8051 13.2852 20.2906 13.359 20.6621C13.527 21.4473 13.527 21.4811 13.4246 21.785C13.3426 22.0299 13.1458 22.4563 13.1131 22.4563C13.1008 22.4563 12.9327 22.3887 12.7401 22.3043C12.5433 22.2198 12.2031 22.089 11.9777 22.0088C11.6949 21.9074 11.3383 21.7217 10.7808 21.3755L9.98154 20.89L8.98552 20.6367C7.23532 20.1892 6.15732 19.9866 5.72695 20.0161C5.16541 20.0584 4.33334 20.6283 4.07511 21.1475C3.90296 21.4937 4.02593 21.861 4.45221 22.2705C4.93177 22.7307 5.11212 22.7729 6.16552 22.642C6.80904 22.566 6.9525 22.5871 7.23532 22.8067C7.37468 22.9206 7.47305 22.9544 7.6698 22.9797C8.09198 23.0304 8.55924 23.2246 8.96093 23.5201C9.0675 23.6003 9.37901 23.8705 9.64953 24.1238C9.92416 24.3813 10.3176 24.7064 10.5226 24.8542C11.6416 25.6521 14.3263 27.1592 14.81 27.2647C15.0436 27.3154 15.515 27.2647 16.1872 27.1254C16.4577 27.0663 16.6913 27.0325 16.7077 27.0494C16.7364 27.079 17.1422 28.945 17.2488 29.5444C17.2857 29.7386 17.3144 30.0426 17.3144 30.2199C17.3144 30.6969 17.1791 31.8452 17.007 32.8204C16.9742 33.0062 16.884 33.5297 16.8061 33.9814C16.7282 34.4331 16.634 35.0875 16.5971 35.4379C16.4782 36.5566 16.47 36.5693 15.7978 36.6664C15.1748 36.755 14.9001 36.8901 14.4862 37.3165C13.9492 37.8611 13.6746 38.4606 13.7853 38.8363C13.8549 39.0727 14.0551 39.7383 14.3174 39.8565C14.5223 39.9536 14.5081 40.0042 15.5 40C19.2419 40 23.0182 39.9887 26.7694 40H34C35.4829 39.9249 37 37.5255 37 36.5C37 34.5255 36.8166 34.3402 36.8043 31.7228C36.7961 30.2241 36.7879 30.0721 36.6896 29.4136C36.1157 25.6309 34.468 22.1819 32.0497 19.6911C30.57 18.1713 28.0287 16.3349 25.4711 14.9459C24.2127 14.2578 23.106 13.7385 21.4583 13.0631C20.9213 12.8393 20.2819 12.5438 20.036 12.4003C18.999 11.8008 16.0478 10.3612 15.6133 10.243C14.8182 10.0235 11.9982 9.58442 11.1661 9.55065C10.5759 9.52532 10.2357 9.55909 9.32573 9.72796C9.02241 9.78706 8.66581 9.8335 8.53465 9.8335C8.3666 9.8335 7.83375 9.71107 6.75575 9.43244C5.04244 8.98494 4.817 8.94273 4.73503 9.04827ZM20.8189 32.2801C20.864 32.5376 21.1099 33.1286 21.3886 33.6521C21.6304 34.1038 21.942 34.602 22.4871 35.4083C22.7371 35.7798 22.7781 35.9824 22.6347 36.1175C22.5855 36.1682 22.3108 36.3033 22.028 36.4215C21.7452 36.5355 21.3148 36.7255 21.0648 36.8352L20.6139 37.0421L20.1221 37.0463C19.7942 37.0505 19.581 37.0759 19.4867 37.1181C19.29 37.2025 19.0687 37.2363 19.0031 37.1941C18.9293 37.1476 19.2244 36.3455 19.6712 35.3745C19.8597 34.9693 20.0893 34.4078 20.1795 34.1291C20.3598 33.5634 20.7164 32.2505 20.7164 32.145C20.7164 32.0225 20.7902 32.1196 20.8189 32.2801Z" fill="white"/>
</svg>
