<svg xmlns="http://www.w3.org/2000/svg" xmlns:xlink="http://www.w3.org/1999/xlink" width="30px" height="34px">
    <path fill-rule="evenodd" fill="rgb(255, 255, 255)" d="M15.196,4.345 C21.022,4.345 25.761,9.095 25.761,14.935 C25.761,20.774 21.022,25.525 15.227,25.525 L15.101,25.517 C14.985,25.509 14.868,25.502 14.751,25.496 L14.040,25.467 L13.357,25.671 L6.272,27.793 L7.132,24.401 L7.605,22.536 L6.511,20.952 C5.281,19.175 4.632,17.094 4.632,14.935 C4.632,9.095 9.371,4.345 15.196,4.345 M15.196,0.109 C7.020,0.109 0.393,6.747 0.393,14.935 C0.393,18.067 1.368,20.967 3.023,23.361 L0.327,33.996 L14.574,29.729 C14.782,29.737 14.986,29.760 15.196,29.760 C23.372,29.760 30.000,23.123 30.000,14.935 C30.000,6.747 23.372,0.109 15.196,0.109 L15.196,0.109 Z" />
</svg>
