<svg xmlns="http://www.w3.org/2000/svg" xmlns:xlink="http://www.w3.org/1999/xlink" width="35px" height="34px">
    <path fill-rule="evenodd" fill="rgb(255, 255, 255)" d="M34.018,9.586 L18.738,25.418 L9.199,25.418 L9.199,15.888 L25.046,0.621 C25.459,0.210 26.000,0.003 26.541,0.003 C27.083,0.003 27.624,0.210 28.037,0.622 L34.018,6.598 C34.844,7.423 34.844,8.761 34.018,9.586 ZM26.514,5.092 L13.438,17.688 L13.438,21.183 L16.936,21.183 L29.544,8.119 L26.514,5.092 ZM11.318,4.239 L6.019,4.239 C5.433,4.239 4.959,4.713 4.959,5.298 L4.959,28.596 C4.959,29.181 5.433,29.655 6.019,29.655 L29.337,29.655 C29.923,29.655 30.397,29.181 30.397,28.596 L30.397,23.300 C30.397,22.131 31.346,21.183 32.517,21.183 C33.688,21.183 34.637,22.131 34.637,23.300 L34.637,31.772 C34.637,32.942 33.688,33.891 32.517,33.891 L2.839,33.891 C1.668,33.891 0.719,32.942 0.719,31.772 L0.719,2.121 C0.719,0.951 1.668,0.003 2.839,0.003 L11.318,0.003 C12.489,0.003 13.438,0.951 13.438,2.121 C13.438,3.291 12.489,4.239 11.318,4.239 Z" />
</svg>