<svg width="40" height="41" viewBox="0 0 40 41" fill="none" xmlns="http://www.w3.org/2000/svg">
<path d="M19.9917 40.6109C23.954 40.6109 25.7431 38.9754 28.6627 37.3181C30.9786 36.012 34.3702 35.7924 35.7641 34.3326C37.0536 32.9798 38.0444 31.371 38.6722 29.6107C39.2999 27.8503 39.5507 25.9776 39.4081 24.1141C39.4081 21.9738 38.3654 18.8127 38.3654 17.9676C38.3654 17.1224 42.5362 0 37.5532 0C33.9421 0 26.0394 8.96732 26.0394 8.96732C24.2233 7.81531 22.1397 7.15355 19.9917 7.04653C17.8362 7.14979 15.7445 7.8117 13.922 8.96732C13.922 8.96732 6.01939 0 2.43027 0C-2.53084 0 1.64001 17.1444 1.64001 17.9895C1.64001 18.8347 0.542417 21.9957 0.542417 24.136C0.40417 26.0019 0.660104 27.876 1.29359 29.6365C1.92707 31.3971 2.92392 33.0046 4.21935 34.3546C5.61329 35.8144 9.00484 36.0339 11.3208 37.34C14.2403 38.9645 16.0294 40.6109 19.9917 40.6109Z" fill="orange"/>
</svg>
